<svg width="15" height="15" viewBox="0 0 15 15" fill="none" xmlns="http://www.w3.org/2000/svg">
<path d="M0.9375 4.21875C0.9375 3.59715 1.18443 3.00101 1.62397 2.56147C2.06351 2.12193 2.65965 1.875 3.28125 1.875H11.7188C12.3404 1.875 12.9365 2.12193 13.376 2.56147C13.8156 3.00101 14.0625 3.59715 14.0625 4.21875V10.7812C14.0625 11.4029 13.8156 11.999 13.376 12.4385C12.9365 12.8781 12.3404 13.125 11.7188 13.125H3.28125C2.65965 13.125 2.06351 12.8781 1.62397 12.4385C1.18443 11.999 0.9375 11.4029 0.9375 10.7812V4.21875ZM4.73625 6.28687C5.18719 6.24 5.53594 6.32063 5.66063 6.38344C5.71588 6.41323 5.77656 6.43163 5.83905 6.43753C5.90155 6.44343 5.9646 6.43672 6.02445 6.41779C6.08431 6.39886 6.13975 6.3681 6.18749 6.32733C6.23523 6.28657 6.2743 6.23663 6.30238 6.18048C6.33045 6.12434 6.34696 6.06312 6.35093 6.00047C6.35489 5.93782 6.34623 5.87501 6.32546 5.81577C6.30469 5.75653 6.27224 5.70206 6.23002 5.6556C6.1878 5.60914 6.13668 5.57164 6.07969 5.54531C5.75063 5.38031 5.20969 5.295 4.63875 5.355C3.73875 5.44875 2.8125 6.23062 2.8125 7.50844C2.8125 8.80687 3.80063 9.66469 4.96875 9.66469C5.5125 9.66469 6 9.40875 6.27844 9.14625C6.52406 8.91375 6.5625 8.60437 6.5625 8.41219V7.50844C6.5625 7.38412 6.51311 7.26489 6.42521 7.17698C6.3373 7.08907 6.21807 7.03969 6.09375 7.03969H5.33719C5.21287 7.03969 5.09364 7.08907 5.00573 7.17698C4.91782 7.26489 4.86844 7.38412 4.86844 7.50844C4.86844 7.63276 4.91782 7.75199 5.00573 7.83989C5.09364 7.9278 5.21287 7.97719 5.33719 7.97719H5.625V8.41125C5.62504 8.43387 5.62316 8.45645 5.61937 8.47875C5.43672 8.63244 5.20737 8.71969 4.96875 8.72625C4.28344 8.72625 3.75 8.25375 3.75 7.5075C3.75 6.74156 4.28156 6.33469 4.73625 6.28687V6.28687ZM8.4375 5.82188C8.4375 5.69755 8.38811 5.57833 8.30021 5.49042C8.2123 5.40251 8.09307 5.35313 7.96875 5.35313C7.84443 5.35313 7.7252 5.40251 7.63729 5.49042C7.54939 5.57833 7.5 5.69755 7.5 5.82188V9.19688C7.5 9.3212 7.54939 9.44042 7.63729 9.52833C7.7252 9.61624 7.84443 9.66563 7.96875 9.66563C8.09307 9.66563 8.2123 9.61624 8.30021 9.52833C8.38811 9.44042 8.4375 9.3212 8.4375 9.19688V5.82188V5.82188ZM9.84375 5.35313C9.71943 5.35313 9.6002 5.40251 9.51229 5.49042C9.42439 5.57833 9.375 5.69755 9.375 5.82188V9.19688C9.375 9.3212 9.42439 9.44042 9.51229 9.52833C9.6002 9.61624 9.71943 9.66563 9.84375 9.66563C9.96807 9.66563 10.0873 9.61624 10.1752 9.52833C10.2631 9.44042 10.3125 9.3212 10.3125 9.19688V7.97344L11.2528 7.96781C11.3771 7.96707 11.4961 7.91697 11.5834 7.82853C11.6708 7.7401 11.7195 7.62057 11.7188 7.49625C11.718 7.37193 11.6679 7.253 11.5795 7.16562C11.491 7.07824 11.3715 7.02957 11.2472 7.03031L10.3125 7.03688V6.28969H11.7188C11.8431 6.28969 11.9623 6.2403 12.0502 6.15239C12.1381 6.06449 12.1875 5.94526 12.1875 5.82094C12.1875 5.69662 12.1381 5.57739 12.0502 5.48948C11.9623 5.40157 11.8431 5.35219 11.7188 5.35219H9.84375V5.35313Z" fill="black"/>
</svg>
