<svg width="24" height="24" viewBox="0 0 24 24" fill="none" xmlns="http://www.w3.org/2000/svg">
<path d="M8 7.5H3.5V3C3.5 2.86739 3.55268 2.74021 3.64645 2.64645C3.74021 2.55268 3.86739 2.5 4 2.5H20C20.1326 2.5 20.2598 2.55268 20.3536 2.64645C20.4473 2.74021 20.5 2.86739 20.5 3V7.5H8ZM3.5 21V8.9863L7.5 8.87519V21H8.5V8.84742L20.5 8.51408V21C20.5 21.1326 20.4473 21.2598 20.3536 21.3536C20.2598 21.4473 20.1326 21.5 20 21.5H4C3.86739 21.5 3.74021 21.4473 3.64645 21.3536C3.55268 21.2598 3.5 21.1326 3.5 21Z" stroke="black"/>
</svg>
