<svg width="15" height="15" viewBox="0 0 15 15" fill="none" xmlns="http://www.w3.org/2000/svg">
<g clip-path="url(#clip0_534_11)">
<path d="M0.9375 7.5C0.9375 3.87563 3.87563 0.9375 7.5 0.9375C11.1244 0.9375 14.0625 3.87563 14.0625 7.5C14.0625 11.1244 11.1244 14.0625 7.5 14.0625C3.87563 14.0625 0.9375 11.1244 0.9375 7.5ZM5.625 7.03125C5.87364 7.03125 6.1121 6.93248 6.28791 6.75666C6.46373 6.58085 6.5625 6.34239 6.5625 6.09375C6.5625 5.84511 6.46373 5.60665 6.28791 5.43084C6.1121 5.25502 5.87364 5.15625 5.625 5.15625C5.37636 5.15625 5.1379 5.25502 4.96209 5.43084C4.78627 5.60665 4.6875 5.84511 4.6875 6.09375C4.6875 6.34239 4.78627 6.58085 4.96209 6.75666C5.1379 6.93248 5.37636 7.03125 5.625 7.03125ZM10.3125 6.09375C10.3125 5.84511 10.2137 5.60665 10.0379 5.43084C9.8621 5.25502 9.62364 5.15625 9.375 5.15625C9.12636 5.15625 8.8879 5.25502 8.71209 5.43084C8.53627 5.60665 8.4375 5.84511 8.4375 6.09375C8.4375 6.34239 8.53627 6.58085 8.71209 6.75666C8.8879 6.93248 9.12636 7.03125 9.375 7.03125C9.62364 7.03125 9.8621 6.93248 10.0379 6.75666C10.2137 6.58085 10.3125 6.34239 10.3125 6.09375ZM4.47797 8.95594C4.36687 9.01155 4.28239 9.109 4.2431 9.22687C4.20382 9.34474 4.21293 9.47338 4.26844 9.58453V9.58594L4.26937 9.58687L4.27078 9.58969L4.27453 9.59672C4.28902 9.62469 4.30466 9.65206 4.32141 9.67875C4.35187 9.72891 4.39641 9.79688 4.45547 9.87563C4.61573 10.0877 4.80204 10.2787 5.01 10.4442C5.52656 10.8577 6.33187 11.25 7.5 11.25C8.66859 11.25 9.47344 10.8577 9.99 10.4438C10.1979 10.2785 10.3842 10.0878 10.5445 9.87609C10.6111 9.78714 10.6715 9.6938 10.7255 9.59672L10.7292 9.58969L10.7306 9.58687L10.7316 9.58547V9.58453C10.7832 9.47417 10.7898 9.34805 10.75 9.23288C10.7103 9.11772 10.6272 9.02257 10.5185 8.9676C10.4097 8.91262 10.2839 8.90214 10.1676 8.93838C10.0512 8.97462 9.95359 9.05472 9.89531 9.16172L9.89344 9.165L9.8775 9.19219C9.85182 9.23397 9.82413 9.27449 9.79453 9.31359C9.71578 9.41906 9.58828 9.56484 9.40453 9.71203C9.04219 10.0017 8.44078 10.3125 7.5 10.3125C6.55922 10.3125 5.95781 10.0017 5.59547 9.7125C5.44929 9.59637 5.31827 9.46235 5.20547 9.31359C5.16978 9.26603 5.13691 9.21641 5.10703 9.165L5.10516 9.16172C5.04896 9.05156 4.95151 8.96807 4.83403 8.92944C4.71656 8.89081 4.58858 8.90016 4.47797 8.95547V8.95594Z" fill="black"/>
</g>
<defs>
<clipPath id="clip0_534_11">
<rect width="15" height="15" fill="white"/>
</clipPath>
</defs>
</svg>
